<mxfile host="app.diagrams.net" agent="Mozilla/5.0 (Macintosh; Intel Mac OS X 10_15_7) AppleWebKit/537.36 (KHTML, like Gecko) Chrome/129.0.0.0 Safari/537.36" version="24.7.16">
  <diagram name="Page-1" id="74e2e168-ea6b-b213-b513-2b3c1d86103e">
    <mxGraphModel dx="954" dy="2241" grid="1" gridSize="10" guides="1" tooltips="1" connect="1" arrows="1" fold="1" page="1" pageScale="1" pageWidth="1100" pageHeight="850" background="none" math="0" shadow="0">
      <root>
        <mxCell id="0" />
        <mxCell id="1" parent="0" />
        <mxCell id="77e6c97f196da883-1" value="" style="swimlane;html=1;childLayout=stackLayout;startSize=20;rounded=0;shadow=0;labelBackgroundColor=none;strokeWidth=1;fontFamily=Verdana;fontSize=8;align=center;" parent="1" vertex="1">
          <mxGeometry x="70" y="52" width="720" height="750" as="geometry" />
        </mxCell>
        <mxCell id="77e6c97f196da883-2" value="业务Web" style="swimlane;html=1;startSize=20;" parent="77e6c97f196da883-1" vertex="1">
          <mxGeometry y="20" width="160" height="730" as="geometry" />
        </mxCell>
        <mxCell id="m8WJhKDSXZ-LfnKGSVrn-34" style="edgeStyle=orthogonalEdgeStyle;rounded=0;orthogonalLoop=1;jettySize=auto;html=1;exitX=0.5;exitY=0;exitDx=0;exitDy=0;" edge="1" parent="77e6c97f196da883-2" source="77e6c97f196da883-9">
          <mxGeometry relative="1" as="geometry">
            <mxPoint x="80" y="188" as="targetPoint" />
          </mxGeometry>
        </mxCell>
        <mxCell id="77e6c97f196da883-9" value="访问" style="rounded=1;whiteSpace=wrap;html=1;shadow=0;labelBackgroundColor=none;strokeWidth=1;fontFamily=Verdana;fontSize=8;align=center;" parent="77e6c97f196da883-2" vertex="1">
          <mxGeometry x="30" y="172" width="100" height="30" as="geometry" />
        </mxCell>
        <mxCell id="m8WJhKDSXZ-LfnKGSVrn-10" value="" style="shape=actor;whiteSpace=wrap;html=1;" vertex="1" parent="77e6c97f196da883-2">
          <mxGeometry x="60" y="70" width="40" height="60" as="geometry" />
        </mxCell>
        <mxCell id="m8WJhKDSXZ-LfnKGSVrn-14" value="业务用户ID" style="endArrow=classic;startArrow=classic;html=1;rounded=0;entryX=0;entryY=0.5;entryDx=0;entryDy=0;" edge="1" parent="77e6c97f196da883-2" target="m8WJhKDSXZ-LfnKGSVrn-9">
          <mxGeometry width="50" height="50" relative="1" as="geometry">
            <mxPoint x="110" y="100" as="sourcePoint" />
            <mxPoint x="500" y="100" as="targetPoint" />
          </mxGeometry>
        </mxCell>
        <mxCell id="77e6c97f196da883-3" value="业务Server" style="swimlane;html=1;startSize=20;" parent="77e6c97f196da883-1" vertex="1">
          <mxGeometry x="160" y="20" width="160" height="730" as="geometry" />
        </mxCell>
        <mxCell id="77e6c97f196da883-11" value="业务存储" style="rounded=1;whiteSpace=wrap;html=1;shadow=0;labelBackgroundColor=none;strokeWidth=1;fontFamily=Verdana;fontSize=8;align=center;" parent="77e6c97f196da883-3" vertex="1">
          <mxGeometry x="30" y="670" width="100" height="38" as="geometry" />
        </mxCell>
        <mxCell id="77e6c97f196da883-4" value="小程序" style="swimlane;html=1;startSize=20;" parent="77e6c97f196da883-1" vertex="1">
          <mxGeometry x="320" y="20" width="170" height="730" as="geometry" />
        </mxCell>
        <mxCell id="77e6c97f196da883-12" value="QQ/微信登录" style="rounded=1;whiteSpace=wrap;html=1;shadow=0;labelBackgroundColor=none;strokeWidth=1;fontFamily=Verdana;fontSize=8;align=center;" parent="77e6c97f196da883-4" vertex="1">
          <mxGeometry x="30" y="308" width="100" height="30" as="geometry" />
        </mxCell>
        <mxCell id="77e6c97f196da883-16" value="是否已存在" style="rhombus;whiteSpace=wrap;html=1;rounded=0;shadow=0;labelBackgroundColor=none;strokeWidth=1;fontFamily=Verdana;fontSize=8;align=center;" parent="77e6c97f196da883-4" vertex="1">
          <mxGeometry x="40" y="380" width="80" height="60" as="geometry" />
        </mxCell>
        <mxCell id="m8WJhKDSXZ-LfnKGSVrn-17" value="入驻信息（实名/钱包）" style="rounded=1;whiteSpace=wrap;html=1;shadow=0;labelBackgroundColor=none;strokeWidth=1;fontFamily=Verdana;fontSize=8;align=center;" vertex="1" parent="77e6c97f196da883-4">
          <mxGeometry x="30" y="496" width="100" height="37" as="geometry" />
        </mxCell>
        <mxCell id="m8WJhKDSXZ-LfnKGSVrn-24" value="绑定" style="rounded=1;whiteSpace=wrap;html=1;shadow=0;labelBackgroundColor=none;strokeWidth=1;fontFamily=Verdana;fontSize=8;align=center;" vertex="1" parent="77e6c97f196da883-4">
          <mxGeometry x="30" y="583" width="100" height="42" as="geometry" />
        </mxCell>
        <mxCell id="m8WJhKDSXZ-LfnKGSVrn-32" value="是否已绑定" style="rhombus;whiteSpace=wrap;html=1;rounded=0;shadow=0;labelBackgroundColor=none;strokeWidth=1;fontFamily=Verdana;fontSize=8;align=center;" vertex="1" parent="77e6c97f196da883-4">
          <mxGeometry x="40" y="156" width="80" height="60" as="geometry" />
        </mxCell>
        <mxCell id="m8WJhKDSXZ-LfnKGSVrn-43" value="" style="endArrow=classic;html=1;rounded=0;exitX=0.5;exitY=1;exitDx=0;exitDy=0;entryX=0.5;entryY=0;entryDx=0;entryDy=0;" edge="1" parent="77e6c97f196da883-4" source="77e6c97f196da883-12" target="77e6c97f196da883-16">
          <mxGeometry width="50" height="50" relative="1" as="geometry">
            <mxPoint x="-10" y="478" as="sourcePoint" />
            <mxPoint x="40" y="428" as="targetPoint" />
          </mxGeometry>
        </mxCell>
        <mxCell id="m8WJhKDSXZ-LfnKGSVrn-44" value="" style="endArrow=classic;startArrow=classic;html=1;rounded=0;entryX=0;entryY=0.5;entryDx=0;entryDy=0;exitX=1;exitY=0.5;exitDx=0;exitDy=0;" edge="1" parent="77e6c97f196da883-4">
          <mxGeometry width="50" height="50" relative="1" as="geometry">
            <mxPoint x="120" y="185.5" as="sourcePoint" />
            <mxPoint x="190" y="185.5" as="targetPoint" />
          </mxGeometry>
        </mxCell>
        <mxCell id="m8WJhKDSXZ-LfnKGSVrn-22" value="" style="endArrow=classic;startArrow=classic;html=1;rounded=0;exitX=1;exitY=0.5;exitDx=0;exitDy=0;entryX=0;entryY=0.5;entryDx=0;entryDy=0;" edge="1" parent="77e6c97f196da883-4" target="77e6c97f196da883-17">
          <mxGeometry width="50" height="50" relative="1" as="geometry">
            <mxPoint x="130" y="514" as="sourcePoint" />
            <mxPoint x="190" y="514.5" as="targetPoint" />
          </mxGeometry>
        </mxCell>
        <mxCell id="m8WJhKDSXZ-LfnKGSVrn-19" value="" style="endArrow=classic;html=1;rounded=0;entryX=0.5;entryY=0;entryDx=0;entryDy=0;exitX=0.5;exitY=1;exitDx=0;exitDy=0;" edge="1" parent="77e6c97f196da883-4" source="77e6c97f196da883-16" target="m8WJhKDSXZ-LfnKGSVrn-17">
          <mxGeometry width="50" height="50" relative="1" as="geometry">
            <mxPoint x="80" y="448" as="sourcePoint" />
            <mxPoint x="40" y="418" as="targetPoint" />
          </mxGeometry>
        </mxCell>
        <mxCell id="m8WJhKDSXZ-LfnKGSVrn-37" value="N" style="edgeLabel;html=1;align=center;verticalAlign=middle;resizable=0;points=[];" vertex="1" connectable="0" parent="m8WJhKDSXZ-LfnKGSVrn-19">
          <mxGeometry x="-0.2414" y="1" relative="1" as="geometry">
            <mxPoint as="offset" />
          </mxGeometry>
        </mxCell>
        <mxCell id="m8WJhKDSXZ-LfnKGSVrn-45" value="我的认证" style="rounded=1;whiteSpace=wrap;html=1;shadow=0;labelBackgroundColor=none;strokeWidth=1;fontFamily=Verdana;fontSize=8;align=center;" vertex="1" parent="77e6c97f196da883-4">
          <mxGeometry x="30" y="248" width="100" height="30" as="geometry" />
        </mxCell>
        <mxCell id="m8WJhKDSXZ-LfnKGSVrn-48" value="Y" style="endArrow=classic;html=1;rounded=0;exitX=0.5;exitY=1;exitDx=0;exitDy=0;" edge="1" parent="77e6c97f196da883-4">
          <mxGeometry width="50" height="50" relative="1" as="geometry">
            <mxPoint x="79.5" y="216" as="sourcePoint" />
            <mxPoint x="80" y="248" as="targetPoint" />
          </mxGeometry>
        </mxCell>
        <mxCell id="m8WJhKDSXZ-LfnKGSVrn-53" value="" style="edgeStyle=elbowEdgeStyle;elbow=horizontal;endArrow=classic;html=1;curved=0;rounded=0;endSize=8;startSize=8;exitX=0;exitY=1;exitDx=0;exitDy=0;" edge="1" parent="77e6c97f196da883-4" source="m8WJhKDSXZ-LfnKGSVrn-32">
          <mxGeometry width="50" height="50" relative="1" as="geometry">
            <mxPoint x="-20" y="378" as="sourcePoint" />
            <mxPoint x="30" y="328" as="targetPoint" />
            <Array as="points">
              <mxPoint x="10" y="258" />
            </Array>
          </mxGeometry>
        </mxCell>
        <mxCell id="m8WJhKDSXZ-LfnKGSVrn-54" value="N" style="edgeLabel;html=1;align=center;verticalAlign=middle;resizable=0;points=[];" vertex="1" connectable="0" parent="m8WJhKDSXZ-LfnKGSVrn-53">
          <mxGeometry x="0.0051" y="1" relative="1" as="geometry">
            <mxPoint as="offset" />
          </mxGeometry>
        </mxCell>
        <mxCell id="m8WJhKDSXZ-LfnKGSVrn-55" value="" style="edgeStyle=elbowEdgeStyle;elbow=horizontal;endArrow=classic;html=1;curved=0;rounded=0;endSize=8;startSize=8;exitX=0;exitY=1;exitDx=0;exitDy=0;" edge="1" parent="77e6c97f196da883-4" source="77e6c97f196da883-16">
          <mxGeometry width="50" height="50" relative="1" as="geometry">
            <mxPoint x="-20" y="658" as="sourcePoint" />
            <mxPoint x="30" y="608" as="targetPoint" />
            <Array as="points">
              <mxPoint x="10" y="518" />
            </Array>
          </mxGeometry>
        </mxCell>
        <mxCell id="m8WJhKDSXZ-LfnKGSVrn-56" value="Y&lt;div&gt;&lt;br&gt;&lt;/div&gt;" style="edgeLabel;html=1;align=center;verticalAlign=middle;resizable=0;points=[];" vertex="1" connectable="0" parent="m8WJhKDSXZ-LfnKGSVrn-55">
          <mxGeometry x="0.004" y="3" relative="1" as="geometry">
            <mxPoint as="offset" />
          </mxGeometry>
        </mxCell>
        <mxCell id="m8WJhKDSXZ-LfnKGSVrn-57" value="" style="endArrow=classic;html=1;rounded=0;exitX=0.5;exitY=1;exitDx=0;exitDy=0;entryX=0.5;entryY=0;entryDx=0;entryDy=0;" edge="1" parent="77e6c97f196da883-4" source="m8WJhKDSXZ-LfnKGSVrn-17">
          <mxGeometry width="50" height="50" relative="1" as="geometry">
            <mxPoint x="79.5" y="541" as="sourcePoint" />
            <mxPoint x="79.5" y="583" as="targetPoint" />
          </mxGeometry>
        </mxCell>
        <mxCell id="77e6c97f196da883-5" value="游可爱Server" style="swimlane;html=1;startSize=20;" parent="77e6c97f196da883-1" vertex="1">
          <mxGeometry x="490" y="20" width="160" height="730" as="geometry" />
        </mxCell>
        <mxCell id="77e6c97f196da883-15" value="用户信息API" style="rounded=1;whiteSpace=wrap;html=1;shadow=0;labelBackgroundColor=none;strokeWidth=1;fontFamily=Verdana;fontSize=8;align=center;" parent="77e6c97f196da883-5" vertex="1">
          <mxGeometry x="30" y="393" width="100" height="33" as="geometry" />
        </mxCell>
        <mxCell id="77e6c97f196da883-17" value="入驻API" style="rounded=1;whiteSpace=wrap;html=1;shadow=0;labelBackgroundColor=none;strokeWidth=1;fontFamily=Verdana;fontSize=8;align=center;" parent="77e6c97f196da883-5" vertex="1">
          <mxGeometry x="31" y="493" width="100" height="39" as="geometry" />
        </mxCell>
        <mxCell id="m8WJhKDSXZ-LfnKGSVrn-9" value="二维码API" style="rounded=1;whiteSpace=wrap;html=1;shadow=0;labelBackgroundColor=none;strokeWidth=1;fontFamily=Verdana;fontSize=8;align=center;" vertex="1" parent="77e6c97f196da883-5">
          <mxGeometry x="30" y="79" width="100" height="40" as="geometry" />
        </mxCell>
        <mxCell id="m8WJhKDSXZ-LfnKGSVrn-25" value="用户绑定API" style="rounded=1;whiteSpace=wrap;html=1;shadow=0;labelBackgroundColor=none;strokeWidth=1;fontFamily=Verdana;fontSize=8;align=center;" vertex="1" parent="77e6c97f196da883-5">
          <mxGeometry x="31" y="585" width="100" height="38" as="geometry" />
        </mxCell>
        <mxCell id="m8WJhKDSXZ-LfnKGSVrn-33" value="绑定状态API" style="rounded=1;whiteSpace=wrap;html=1;shadow=0;labelBackgroundColor=none;strokeWidth=1;fontFamily=Verdana;fontSize=8;align=center;" vertex="1" parent="77e6c97f196da883-5">
          <mxGeometry x="30" y="168" width="100" height="33" as="geometry" />
        </mxCell>
        <mxCell id="m8WJhKDSXZ-LfnKGSVrn-18" value="" style="endArrow=classic;startArrow=classic;html=1;rounded=0;entryX=0;entryY=0.5;entryDx=0;entryDy=0;exitX=1;exitY=0.5;exitDx=0;exitDy=0;" edge="1" parent="77e6c97f196da883-1" source="77e6c97f196da883-16" target="77e6c97f196da883-15">
          <mxGeometry width="50" height="50" relative="1" as="geometry">
            <mxPoint x="440" y="350" as="sourcePoint" />
            <mxPoint x="490" y="300" as="targetPoint" />
          </mxGeometry>
        </mxCell>
        <mxCell id="m8WJhKDSXZ-LfnKGSVrn-30" value="" style="edgeStyle=elbowEdgeStyle;elbow=vertical;endArrow=classic;html=1;curved=0;rounded=0;endSize=8;startSize=8;entryX=0.5;entryY=0;entryDx=0;entryDy=0;exitX=0.5;exitY=1;exitDx=0;exitDy=0;" edge="1" parent="77e6c97f196da883-1" source="m8WJhKDSXZ-LfnKGSVrn-25" target="77e6c97f196da883-11">
          <mxGeometry width="50" height="50" relative="1" as="geometry">
            <mxPoint x="560" y="638" as="sourcePoint" />
            <mxPoint x="610" y="588" as="targetPoint" />
          </mxGeometry>
        </mxCell>
        <mxCell id="m8WJhKDSXZ-LfnKGSVrn-31" value="游可爱ID/实名信息" style="edgeLabel;html=1;align=center;verticalAlign=middle;resizable=0;points=[];" vertex="1" connectable="0" parent="m8WJhKDSXZ-LfnKGSVrn-30">
          <mxGeometry x="-0.0795" y="3" relative="1" as="geometry">
            <mxPoint as="offset" />
          </mxGeometry>
        </mxCell>
        <mxCell id="m8WJhKDSXZ-LfnKGSVrn-35" value="" style="endArrow=classic;html=1;rounded=0;entryX=0;entryY=0.5;entryDx=0;entryDy=0;exitX=1;exitY=0.5;exitDx=0;exitDy=0;" edge="1" parent="77e6c97f196da883-1" source="77e6c97f196da883-9" target="m8WJhKDSXZ-LfnKGSVrn-32">
          <mxGeometry width="50" height="50" relative="1" as="geometry">
            <mxPoint x="130" y="208" as="sourcePoint" />
            <mxPoint x="220" y="188" as="targetPoint" />
          </mxGeometry>
        </mxCell>
        <mxCell id="m8WJhKDSXZ-LfnKGSVrn-59" value="" style="endArrow=classic;startArrow=classic;html=1;rounded=0;exitX=1;exitY=0.5;exitDx=0;exitDy=0;entryX=0;entryY=0.5;entryDx=0;entryDy=0;" edge="1" parent="1">
          <mxGeometry width="50" height="50" relative="1" as="geometry">
            <mxPoint x="520" y="679" as="sourcePoint" />
            <mxPoint x="591" y="678" as="targetPoint" />
          </mxGeometry>
        </mxCell>
      </root>
    </mxGraphModel>
  </diagram>
</mxfile>
